<svg width="1161" height="917" viewBox="0 0 1161 917" fill="none" xmlns="http://www.w3.org/2000/svg">
<g clip-path="url(#clip0_125_763)">
<path d="M908.9 254.047C937 329.077 914.84 416.941 856.21 498.373C797.57 579.802 702.49 654.757 584.84 703.913C467.194 753.069 349.293 767.106 253.786 750.085C158.275 733.057 85.2061 684.983 57.1041 609.953C29.0031 534.923 51.16 447.059 109.795 365.627C168.428 284.198 263.513 209.243 381.16 160.087C498.806 110.93 616.7 96.892 712.21 113.917C807.73 130.942 880.79 179.017 908.9 254.047Z" stroke="#8EADCA"/>
<path d="M1129.3 178.68C1180.54 278.576 1165.56 400.346 1099.85 516.495C1034.13 632.644 917.71 743.138 766.13 820.432C614.54 897.715 456.539 927.147 323.627 912.27C190.714 897.394 82.9328 838.216 31.6968 738.319C-19.5372 638.423 -4.5601 516.653 61.1519 400.503C126.863 284.355 243.292 173.861 394.875 96.5724C546.458 19.2846 704.46 -10.1471 837.37 4.72953C970.29 19.6063 1078.07 78.784 1129.3 178.68Z" stroke="url(#paint0_linear_125_763)"/>
</g>
<defs>
<linearGradient id="paint0_linear_125_763" x1="394.697" y1="96.225" x2="882" y2="802.224" gradientUnits="userSpaceOnUse">
<stop stop-color="#FF5777" stop-opacity="0.4"/>
<stop offset="1" stop-color="#B3D075"/>
</linearGradient>
<clipPath id="clip0_125_763">
<rect width="1161" height="917" fill="white"/>
</clipPath>
</defs>
</svg>
