<svg width="1590" height="1002" viewBox="0 0 1590 1002" fill="none" xmlns="http://www.w3.org/2000/svg">
<g clip-path="url(#clip0_123_745)">
<path d="M1337.9 254.047C1366 329.077 1343.84 416.941 1285.21 498.373C1226.57 579.802 1131.49 654.757 1013.84 703.913C896.194 753.069 778.293 767.106 682.786 750.085C587.275 733.057 514.206 684.983 486.104 609.953C458.003 534.923 480.16 447.059 538.795 365.627C597.428 284.198 692.513 209.243 810.16 160.087C927.806 110.93 1045.7 96.892 1141.21 113.917C1236.73 130.942 1309.79 179.017 1337.9 254.047Z" stroke="#8EADCA"/>
<path d="M1558.3 178.68C1609.54 278.576 1594.56 400.346 1528.85 516.495C1463.13 632.644 1346.71 743.138 1195.13 820.432C1043.54 897.715 885.539 927.147 752.627 912.27C619.714 897.394 511.933 838.216 460.697 738.319C409.463 638.423 424.44 516.653 490.152 400.503C555.863 284.355 672.292 173.861 823.875 96.5724C975.458 19.2846 1133.46 -10.1471 1266.37 4.72953C1399.29 19.6063 1507.07 78.784 1558.3 178.68Z" stroke="url(#paint0_linear_123_745)"/>
<path d="M0.86575 876.263C-5.49131 953.441 351.861 950.236 789.374 986.273C1226.89 1022.31 1586.72 988.956 1593.08 911.778" stroke="#545454"/>
</g>
<defs>
<linearGradient id="paint0_linear_123_745" x1="823.697" y1="96.225" x2="1311" y2="802.224" gradientUnits="userSpaceOnUse">
<stop stop-color="#FF5777" stop-opacity="0.4"/>
<stop offset="1" stop-color="#B3D075"/>
</linearGradient>
<clipPath id="clip0_123_745">
<rect width="1590" height="1002" fill="white"/>
</clipPath>
</defs>
</svg>
